<?xml version="1.0" encoding="UTF-8"?>
<svg version="1.1" xmlns="http://www.w3.org/2000/svg" width="64" height="64">
<path d="M0 0 C2.57836132 2.57836132 1.28346668 9.66422832 1.3125 13.125 C1.34150391 14.25421875 1.37050781 15.3834375 1.40039062 16.546875 C1.4517354 23.29278868 1.15156547 27.58710822 -3 33 C-7.41420349 37.47947822 -12.6196081 41.41996437 -19 42 C-25.68970704 40.04495639 -31.72655595 35.25383368 -35.67578125 29.6015625 C-37.66756849 24.18437126 -37.43360075 18.97334017 -37.375 13.25 C-37.38660156 12.10144531 -37.39820313 10.95289063 -37.41015625 9.76953125 C-37.40435547 8.12791016 -37.40435547 8.12791016 -37.3984375 6.453125 C-37.39505371 5.45442383 -37.39166992 4.45572266 -37.38818359 3.42675781 C-37.26008301 2.62592773 -37.13198242 1.82509766 -37 1 C-26.47912989 -6.01391341 -11.33430318 -3.29942762 0 0 Z M-20 13 C-21.15837626 17.05431692 -20.83691257 19.21812119 -19 23 C-18.01 22.67 -17.02 22.34 -16 22 C-15.67 19.36 -15.34 16.72 -15 14 C-16.65 13.67 -18.3 13.34 -20 13 Z " fill="#FAAF04" transform="translate(50,14)"/>
<path d="M0 0 C0.66 0 1.32 0 2 0 C2.66 1.65 3.32 3.3 4 5 C1.11028346 9.22343187 -0.98389244 10.89645634 -6 12 C-9.3125 12.1875 -9.3125 12.1875 -12 12 C-13 11 -13 11 -13.125 8 C-13 5 -13 5 -12 4 C-10.5406783 4.03197717 -9.08206293 4.10026484 -7.625 4.1875 C-5.20669297 4.28036825 -5.20669297 4.28036825 -3 4 C-1.01760473 2.13875077 -1.01760473 2.13875077 0 0 Z " fill="#F9AF04" transform="translate(13,44)"/>
<path d="M0 0 C0.66 0 1.32 0 2 0 C2.350625 0.66 2.70125 1.32 3.0625 2 C4.79044787 4.21081728 4.79044787 4.21081728 7.16015625 4.23046875 C8.78741161 4.20210138 10.41446896 4.14023406 12.0390625 4.04296875 C12.68617187 4.02878906 13.33328125 4.01460937 14 4 C15 5 15 5 15.125 8 C15 11 15 11 14 12 C8.83122355 11.95728284 4.04456124 11.43174893 0 8 C-1.4375 5.5 -1.4375 5.5 -2 3 C-1.34 2.01 -0.68 1.02 0 0 Z " fill="#F9AF04" transform="translate(49,44)"/>
<path d="M0 0 C2.14453125 0.015625 2.14453125 0.015625 4.8125 0.25 C6.12154297 0.35054688 6.12154297 0.35054688 7.45703125 0.453125 C10.3133745 1.06739237 11.81296331 2.1035486 14 4 C13.67 5.32 13.34 6.64 13 8 C11.68 8 10.36 8 9 8 C7.84951172 8.01740234 7.84951172 8.01740234 6.67578125 8.03515625 C5.89589844 8.04417969 5.11601563 8.05320312 4.3125 8.0625 C3.52488281 8.07410156 2.73726563 8.08570313 1.92578125 8.09765625 C-0 8 -0 8 -1 7 C-1.125 4 -1.125 4 -1 1 C-0.67 0.67 -0.34 0.34 0 0 Z " fill="#F9B004" transform="translate(1,6)"/>
<path d="M0 0 C1 1 1 1 1.125 4 C1 7 1 7 0 8 C-1.43580606 8.07280964 -2.87500498 8.08367423 -4.3125 8.0625 C-5.09238281 8.05347656 -5.87226562 8.04445313 -6.67578125 8.03515625 C-7.44277344 8.02355469 -8.20976563 8.01195312 -9 8 C-10.32 8 -11.64 8 -13 8 C-13.33 6.68 -13.66 5.36 -14 4 C-9.12377573 0.96883356 -5.78777047 -0.25164219 0 0 Z " fill="#F9B004" transform="translate(63,6)"/>
<path d="M0 0 C1 1 1 1 1.125 4 C1 7 1 7 0 8 C-1.69141656 7.91036938 -3.37959602 7.75422324 -5.0625 7.5625 C-6.44115234 7.40974609 -6.44115234 7.40974609 -7.84765625 7.25390625 C-8.55792969 7.17011719 -9.26820312 7.08632813 -10 7 C-10 5.02 -10 3.04 -10 1 C-6.61905851 -0.04028969 -3.52637472 -0.15672777 0 0 Z " fill="#F9AF04" transform="translate(63,27)"/>
<path d="M0 0 C1.69141656 0.08963062 3.37959602 0.24577676 5.0625 0.4375 C6.44115234 0.59025391 6.44115234 0.59025391 7.84765625 0.74609375 C8.55792969 0.82988281 9.26820312 0.91367187 10 1 C10 2.98 10 4.96 10 7 C8.35492782 7.19406478 6.70890406 7.38007935 5.0625 7.5625 C3.68771484 7.71912109 3.68771484 7.71912109 2.28515625 7.87890625 C1.53105469 7.91886719 0.77695312 7.95882812 0 8 C-1 7 -1 7 -1.125 4 C-1 1 -1 1 0 0 Z " fill="#F9AF04" transform="translate(1,27)"/>
</svg>
